<svg id="Layer_1" data-name="Layer 1" xmlns="http://www.w3.org/2000/svg" viewBox="0 0 82.52 72.82"><defs><style>.cls-1,.cls-2{fill:none;stroke-miterlimit:10;stroke-width:3px;}.cls-1{stroke:#e52b43;}.cls-2{stroke:#e62243;}</style></defs><path class="cls-1" d="M1.06,37.15,6.62,31.6l5.07,5.07m50.2,27.88a34.92,34.92,0,0,1-55.36-32M20.61,8.24a34.92,34.92,0,0,1,55.21,32.9"/><path class="cls-1" d="M81.46,35.66,75.9,41.22l-5.08-5.08"/><path class="cls-2" d="M41.23,50.63C54,56,59.44,51.13,59.44,41.24c0-13.6-18.21-24.76-18.21-24.76S23,27.64,23,41.24C23,51.13,28.46,56,41.23,50.63Z"/><polyline class="cls-2" points="41.23 57.82 41.23 45.1 41.23 33.57"/><line class="cls-2" x1="41.23" y1="16.48" x2="41.23" y2="38.9"/><line class="cls-2" x1="58.62" y1="37.33" x2="41.19" y2="50.32"/><line class="cls-2" x1="23.8" y1="37.33" x2="41.23" y2="50.32"/><line class="cls-2" x1="53.98" y1="27.81" x2="41.2" y2="37.33"/><line class="cls-2" x1="28.47" y1="27.83" x2="41.22" y2="37.33"/></svg>