<svg xmlns="http://www.w3.org/2000/svg" xmlns:xlink="http://www.w3.org/1999/xlink" viewBox="0 0 75.3 78.2"><defs><path id="a" d="M0 0h75.3v78.2H0z"/></defs><clipPath id="b"><use xlink:href="#a" overflow="visible"/></clipPath><path d="M24.5 40l7.6 7.7 18.6-18.6m-13 36.1c13.6 0 25.4-10.6 26-24.9.7-14.9-10.9-26.5-24.7-27.2-14.3-.7-26.6 10.2-27.4 24.6-.8 14.9 11.1 27.4 26.1 27.5zm14.9 5.9c-1.1 0-2.2-.1-3.3 0-1.3.1-2.4.6-3.4 1.4-1.2.9-2.5 1.8-3.7 2.7-2.8 2-6.3 2-9.1 0-1.2-.9-2.5-1.8-3.7-2.7-1.4-1-3-1.6-4.8-1.5-1.8 0-3.6.1-5.4 0-3.3-.3-5.5-2.2-6.6-5.3-.5-1.4-.9-2.9-1.4-4.3-.5-1.7-1.5-3-2.9-4-1.3-.9-2.5-1.8-3.7-2.7-2.8-2-3.9-5.4-2.8-8.6.5-1.4.9-2.9 1.4-4.3.6-1.7.6-3.4 0-5.1-.5-1.4-.9-2.8-1.4-4.1-1.1-3.4 0-6.8 2.9-8.9 1.2-.8 2.4-1.7 3.5-2.5 1.5-1 2.5-2.4 3-4.1l1.5-4.5c1-3.1 3.9-5.1 7.1-5.2h4.5c1.9 0 3.6-.5 5.2-1.7 1.1-.9 2.3-1.7 3.5-2.5 2.8-2 6.3-2 9.1 0 1.2.9 2.5 1.8 3.7 2.7 1.4 1 3 1.6 4.8 1.6 1.7 0 3.4-.1 5 0 3.1.1 5.8 2.2 6.8 5.1.5 1.5 1 3.1 1.5 4.6.5 1.6 1.4 2.9 2.8 3.9 1.2.9 2.5 1.8 3.7 2.7 2.9 2.1 4 5.4 2.9 8.8-.5 1.5-1 2.9-1.4 4.4-.5 1.6-.5 3.2 0 4.8.5 1.4.9 2.8 1.4 4.3 1.1 3.4 0 6.8-2.9 8.9-1.4 1-2.8 2-4.1 3-1.2.9-1.9 2.1-2.4 3.5-.5 1.5-.9 2.9-1.4 4.4-1.1 3.2-3.9 5.3-7.3 5.4-.8-.3-1.7-.3-2.6-.2 0-.1 0 0 0 0z" clip-path="url(#b)" fill="none" stroke="#f2243f" stroke-width="2.881" stroke-miterlimit="10"/></svg>