<svg xmlns="http://www.w3.org/2000/svg" xmlns:xlink="http://www.w3.org/1999/xlink" viewBox="0 0 89.5 78.5"><defs><path id="a" d="M0 0h89.5v78.5H0z"/></defs><clipPath id="b"><use xlink:href="#a" overflow="visible"/></clipPath><path d="M1 37.2l5.6-5.6 5.1 5.1m44.8 31.2c-4.6 2.2-9.8 3.5-15.3 3.5-19.3 0-34.9-15.6-34.9-34.9 0-1.3.1-2.6.2-3.9M20.6 8.3c2-1.4 4.1-2.7 6.3-3.7 4.4-2 9.2-3.1 14.3-3.1 19.3 0 34.9 15.6 34.9 34.9 0 2.6-.3 5.1-.8 7.5" clip-path="url(#b)" fill="none" stroke="#f2243f" stroke-width="2.936" stroke-miterlimit="10"/><path d="M32.7 37h-3.6v-3.8h3.6v-4c0-.9.1-1.9.4-3.1.2-1.2.7-2.3 1.4-3.3s1.7-1.9 3-2.6c1.3-.7 3-1.1 5.1-1.1 1.2 0 2.2.1 3.2.4.9.3 1.7.6 2.4 1s1.2.8 1.7 1.2c.4.4.8.7 1.1.9l-2.9 3.2c-.6-.6-1.3-1.2-2.1-1.7s-1.9-.8-3.3-.8c-1 0-1.8.2-2.5.6-.7.4-1.2.9-1.6 1.5-.4.6-.7 1.4-.8 2.2-.2.8-.2 1.7-.2 2.6v3.1h9.9V37h-9.9v10h14.3v4.3h-19V37z" clip-path="url(#b)" fill="#f2243f"/><path d="M87.8 60.1c0 9.2-7.4 16.6-16.6 16.6-9.2 0-16.6-7.4-16.6-16.6S62 43.5 71.2 43.5c9.1 0 16.6 7.5 16.6 16.6z" clip-path="url(#b)" fill="none" stroke="#f2243f" stroke-width="3.54" stroke-miterlimit="10"/><path d="M63.5 61.1l4.4 4.5 10.8-10.8m9.1 5.3c0 9.2-7.4 16.6-16.6 16.6s-16.6-7.4-16.6-16.6S62 43.5 71.2 43.5 87.8 51 87.8 60.1zm-24.3 1l4.4 4.5 10.8-10.8" clip-path="url(#b)" fill="none" stroke="#f2243f" stroke-width="3.178" stroke-miterlimit="10"/></svg>