<svg id="Layer_1" xmlns="http://www.w3.org/2000/svg" xmlns:xlink="http://www.w3.org/1999/xlink" viewBox="0 0 130.8 89.2"><style>.st0{clip-path:url(#SVGID_2_)}.st0,.st1{fill:none;stroke:#f2243f;stroke-width:3.543;stroke-miterlimit:10}</style><defs><path id="SVGID_1_" d="M0 0h130.8v89.2H0z"/></defs><clipPath id="SVGID_2_"><use xlink:href="#SVGID_1_" overflow="visible"/></clipPath><path class="st0" d="M102.2 79.2h-9.9V35.1h18.3L129 58.5v20.8h-10.4m-85.5-.1H22.2V47m24.4-27.3h45.7v59.5h-43"/><circle class="st0" cx="41.1" cy="79.2" r="8.2"/><circle class="st0" cx="110.4" cy="79.2" r="8.2"/><path class="st0" d="M128 57.2h-25.1V44.7h15.7M47.1 24.4C47.1 37 37 47.1 24.4 47.1 11.9 47.1 1.8 37 1.8 24.4S11.9 1.8 24.4 1.8c12.6 0 22.7 10.1 22.7 22.6z"/><path class="st1" d="M29.1 66.4h-6.9"/><g><defs><path id="SVGID_3_" d="M0 0h130.8v89.2H0z"/></defs><clipPath id="SVGID_4_"><use xlink:href="#SVGID_3_" overflow="visible"/></clipPath><path clip-path="url(#SVGID_4_)" fill="none" stroke="#f2243f" stroke-width="3.543" stroke-miterlimit="10" d="M128 66.4h-7"/></g><path class="st1" d="M24.4 9.9v14.5h12.2"/></svg>